{
  "accessors": [
    {
      "name": "Obj_000001_1_0_positions",
      "componentType": 5126,
      "count": 7914,
      "min": [
        -6.412799835205078,
        -6.46560001373291,
        -44.743499755859375
      ],
      "max": [
        6.513199806213379,
        6.465000152587891,
        45.65840148925781
      ],
      "type": "VEC3",
      "bufferView": 0,
      "byteOffset": 0
    },
    {
      "name": "Obj_000001_1_0_normals",
      "componentType": 5126,
      "count": 7914,
      "min": [
        -1,
        -1,
        -1
      ],
      "max": [
        1,
        1,
        1
      ],
      "type": "VEC3",
      "bufferView": 1,
      "byteOffset": 0
    },
    {
      "name": "Obj_000001_1_0_texcoords",
      "componentType": 5126,
      "count": 7914,
      "min": [
        0,
        0.0017999999690800905
      ],
      "max": [
        0.9984999895095825,
        1
      ],
      "type": "VEC2",
      "bufferView": 2,
      "byteOffset": 0
    },
    {
      "name": "Obj_000001_1_0_indices",
      "componentType": 5123,
      "count": 38910,
      "min": [
        0
      ],
      "max": [
        7913
      ],
      "type": "SCALAR",
      "bufferView": 3,
      "byteOffset": 0
    }
  ],
  "asset": {
    "generator": "obj2gltf",
    "version": "2.0"
  },
  "buffers": [
    {
      "name": "daodan1",
      "byteLength": 331068,
      "uri": "data:application/octet-stream;base64,"
    }
  ],
  "bufferViews": [
    {
      "name": "bufferView_0",
      "buffer": 0,
      "byteLength": 94968,
      "byteOffset": 0,
      "byteStride": 12,
      "target": 34962
    },
    {
      "name": "bufferView_1",
      "buffer": 0,
      "byteLength": 94968,
      "byteOffset": 94968,
      "byteStride": 12,
      "target": 34962
    },
    {
      "name": "bufferView_2",
      "buffer": 0,
      "byteLength": 63312,
      "byteOffset": 189936,
      "byteStride": 8,
      "target": 34962
    },
    {
      "name": "bufferView_3",
      "buffer": 0,
      "byteLength": 77820,
      "byteOffset": 253248,
      "target": 34963
    }
  ],
  "materials": [
    {
      "name": "mat0",
      "pbrMetallicRoughness": {
        "baseColorFactor": [
          1,
          1,
          1,
          1
        ],
        "metallicFactor": 0,
        "roughnessFactor": 1
      },
      "emissiveFactor": [
        0,
        0,
        0
      ],
      "alphaMode": "OPAQUE",
      "doubleSided": false
    }
  ],
  "meshes": [
    {
      "name": "Obj_000001_1",
      "primitives": [
        {
          "attributes": {
            "POSITION": 0,
            "NORMAL": 1,
            "TEXCOORD_0": 2
          },
          "indices": 3,
          "material": 0,
          "mode": 4
        }
      ]
    }
  ],
  "nodes": [
    {
      "name": "Obj_000001",
      "mesh": 0
    }
  ],
  "scene": 0,
  "scenes": [
    {
      "nodes": [
        0
      ]
    }
  ]
}
