{
  "accessors": [
    {
      "name": "background-Mesh_positions",
      "componentType": 5126,
      "count": 1880,
      "min": [
        -246.15774536132812,
        -0.02542191743850708,
        -564.5
      ],
      "max": [
        333.9920654296875,
        447.6387939453125,
        564.5
      ],
      "type": "VEC3",
      "bufferView": 0,
      "byteOffset": 0
    },
    {
      "name": "background-Mesh_normals",
      "componentType": 5126,
      "count": 1880,
      "min": [
        -0.0006722686230204999,
        0,
        0
      ],
      "max": [
        1,
        1,
        0
      ],
      "type": "VEC3",
      "bufferView": 0,
      "byteOffset": 23652
    },
    {
      "name": "background-Mesh_texcoords",
      "componentType": 5126,
      "count": 1880,
      "min": [
        0,
        0
      ],
      "max": [
        1,
        1
      ],
      "type": "VEC2",
      "bufferView": 1,
      "byteOffset": 0
    },
    {
      "name": "background-Mesh_0_indices",
      "componentType": 5123,
      "count": 10764,
      "min": [
        0
      ],
      "max": [
        1879
      ],
      "type": "SCALAR",
      "bufferView": 2,
      "byteOffset": 0
    },
    {
      "name": "Diamond-Mesh_positions",
      "componentType": 5126,
      "count": 91,
      "min": [
        -94.79561614990234,
        6.226221561431885,
        -94.79561614990234
      ],
      "max": [
        94.79561614990234,
        181.51597595214844,
        94.79561614990234
      ],
      "type": "VEC3",
      "bufferView": 0,
      "byteOffset": 22560
    },
    {
      "name": "Diamond-Mesh_texcoords",
      "componentType": 5126,
      "count": 91,
      "min": [
        0,
        0
      ],
      "max": [
        1,
        1
      ],
      "type": "VEC2",
      "bufferView": 1,
      "byteOffset": 15040
    },
    {
      "name": "Diamond-Mesh_0_indices",
      "componentType": 5123,
      "count": 384,
      "min": [
        0
      ],
      "max": [
        90
      ],
      "type": "SCALAR",
      "bufferView": 2,
      "byteOffset": 21528
    }
  ],
  "asset": {
    "generator": "obj2gltf",
    "version": "2.0"
  },
  "buffers": [
    {
      "name": "diamond",
      "byteLength": 84276,
      "uri": "data:application/octet-stream;base64,"
    }
  ],
  "bufferViews": [
    {
      "name": "bufferView_0",
      "buffer": 0,
      "byteLength": 46212,
      "byteOffset": 0,
      "byteStride": 12,
      "target": 34962
    },
    {
      "name": "bufferView_1",
      "buffer": 0,
      "byteLength": 15768,
      "byteOffset": 46212,
      "byteStride": 8,
      "target": 34962
    },
    {
      "name": "bufferView_2",
      "buffer": 0,
      "byteLength": 22296,
      "byteOffset": 61980,
      "target": 34963
    }
  ],
  "materials": [
    {
      "name": "Mat.2",
      "pbrMetallicRoughness": {
        "baseColorFactor": [
          0.80000001192093,
          0.80000001192093,
          0.80000001192093,
          1
        ],
        "metallicFactor": 0,
        "roughnessFactor": 0.95
      },
      "emissiveFactor": [
        0,
        0,
        0
      ],
      "alphaMode": "OPAQUE",
      "doubleSided": false
    },
    {
      "name": "Mat",
      "pbrMetallicRoughness": {
        "baseColorFactor": [
          1,
          1,
          1,
          1
        ],
        "metallicFactor": 0,
        "roughnessFactor": 0.955
      },
      "emissiveFactor": [
        0,
        0,
        0
      ],
      "alphaMode": "OPAQUE",
      "doubleSided": false
    }
  ],
  "meshes": [
    {
      "name": "background-Mesh",
      "primitives": [
        {
          "attributes": {
            "POSITION": 0,
            "NORMAL": 1,
            "TEXCOORD_0": 2
          },
          "indices": 3,
          "material": 0,
          "mode": 4
        }
      ]
    },
    {
      "name": "Diamond-Mesh",
      "primitives": [
        {
          "attributes": {
            "POSITION": 4,
            "TEXCOORD_0": 5
          },
          "indices": 6,
          "material": 1,
          "mode": 4
        }
      ]
    }
  ],
  "nodes": [
    {
      "name": "background",
      "mesh": 0
    },
    {
      "name": "Diamond",
      "mesh": 1
    }
  ],
  "scene": 0,
  "scenes": [
    {
      "nodes": [
        0,
        1
      ]
    }
  ]
}
