{
  "accessors": [
    {
      "name": "GlobalHawkOBJ:polySurface7group28group29_1_0_positions",
      "componentType": 5126,
      "count": 44288,
      "min": [
        -87.5838394165039,
        2.328373908996582,
        -35.162654876708984
      ],
      "max": [
        87.54962158203125,
        22.630929946899414,
        41.219825744628906
      ],
      "type": "VEC3",
      "bufferView": 0,
      "byteOffset": 0
    },
    {
      "name": "GlobalHawkOBJ:polySurface7group28group29_1_0_normals",
      "componentType": 5126,
      "count": 44288,
      "min": [
        -1,
        -1,
        -1
      ],
      "max": [
        1,
        1,
        1
      ],
      "type": "VEC3",
      "bufferView": 1,
      "byteOffset": 0
    },
    {
      "name": "GlobalHawkOBJ:polySurface7group28group29_1_0_texcoords",
      "componentType": 5126,
      "count": 44288,
      "min": [
        0.001914000022225082,
        0.0019920000340789557
      ],
      "max": [
        0.9591000080108643,
        0.9980080127716064
      ],
      "type": "VEC2",
      "bufferView": 2,
      "byteOffset": 0
    },
    {
      "name": "GlobalHawkOBJ:polySurface7group28group29_1_0_indices",
      "componentType": 5123,
      "count": 64914,
      "min": [
        0
      ],
      "max": [
        44287
      ],
      "type": "SCALAR",
      "bufferView": 3,
      "byteOffset": 0
    }
  ],
  "asset": {
    "generator": "obj2gltf",
    "version": "2.0"
  },
  "buffers": [
    {
      "name": "wrj_01",
      "byteLength": 2571572,
      "uri": "data:application/octet-stream;base64,"
    }
  ],
  "bufferViews": [
    {
      "name": "bufferView_0",
      "buffer": 0,
      "byteLength": 531456,
      "byteOffset": 0,
      "byteStride": 12,
      "target": 34962
    },
    {
      "name": "bufferView_1",
      "buffer": 0,
      "byteLength": 531456,
      "byteOffset": 531456,
      "byteStride": 12,
      "target": 34962
    },
    {
      "name": "bufferView_2",
      "buffer": 0,
      "byteLength": 354304,
      "byteOffset": 1062912,
      "byteStride": 8,
      "target": 34962
    },
    {
      "name": "bufferView_3",
      "buffer": 0,
      "byteLength": 129828,
      "byteOffset": 1417216,
      "target": 34963
    },
    {
      "buffer": 0,
      "byteOffset": 1547044,
      "byteLength": 1024528
    }
  ],
  "images": [
    {
      "name": "uvreverse7",
      "mimeType": "image/png",
      "bufferView": 4
    }
  ],
  "materials": [
    {
      "name": "GlobalHawkOBJ:GlobalHawkJustModelFinal_DeletedHistory_lambert5SG",
      "pbrMetallicRoughness": {
        "baseColorTexture": {
          "index": 0
        },
        "baseColorFactor": [
          1,
          1,
          1,
          1
        ],
        "metallicFactor": 0,
        "roughnessFactor": 0.99994
      },
      "emissiveFactor": [
        0,
        0,
        0
      ],
      "alphaMode": "OPAQUE",
      "doubleSided": false
    }
  ],
  "meshes": [
    {
      "name": "GlobalHawkOBJ:polySurface7group28group29_1",
      "primitives": [
        {
          "attributes": {
            "POSITION": 0,
            "NORMAL": 1,
            "TEXCOORD_0": 2
          },
          "indices": 3,
          "material": 0,
          "mode": 4
        }
      ]
    }
  ],
  "nodes": [
    {
      "name": "GlobalHawkOBJ:polySurface7group28group29",
      "mesh": 0
    }
  ],
  "samplers": [
    {
      "magFilter": 9729,
      "minFilter": 9986,
      "wrapS": 10497,
      "wrapT": 10497
    }
  ],
  "scene": 0,
  "scenes": [
    {
      "nodes": [
        0
      ]
    }
  ],
  "textures": [
    {
      "name": "uvreverse7",
      "sampler": 0,
      "source": 0
    }
  ]
}
